<svg xmlns="http://www.w3.org/2000/svg" viewBox="0 0 68.98 88"><defs><style>.cls-1{fill:#4e88fc;}</style></defs><title>Asset 8</title><g id="Layer_2" data-name="Layer 2"><g id="Layer_1-2" data-name="Layer 1"><path class="cls-1" d="M50,23a7.61,7.61,0,1,0,7.61,7.61A7.62,7.62,0,0,0,50,23Zm0,13.23a5.62,5.62,0,1,1,5.61-5.62A5.62,5.62,0,0,1,50,36.23Z"/><path class="cls-1" d="M18.94,23a7.61,7.61,0,1,0,7.62,7.61A7.62,7.62,0,0,0,18.94,23Zm0,13.23a5.62,5.62,0,1,1,5.62-5.62A5.62,5.62,0,0,1,18.94,36.23Z"/><path class="cls-1" d="M69,3.63a1,1,0,1,0-2,0,8.55,8.55,0,0,1-7.51,8.48l-.56.07-.35-.44a30.54,30.54,0,0,0-48.14,0l-.35.44-.56-.07A8.55,8.55,0,0,1,2,3.63a1,1,0,0,0-2,0,10.65,10.65,0,0,0,7.49,10.1l1.21.37-.64,1.09A30.61,30.61,0,0,0,3.88,30.61V87a1,1,0,0,0,1,1h52a1,1,0,0,0,0-2H46.08l3.35-1.87A30.6,30.6,0,0,0,65.1,57.47V30.61a30.61,30.61,0,0,0-4.18-15.42l-.65-1.1,1.22-.36A10.64,10.64,0,0,0,69,3.63ZM28.53,18.57l0,0-.06-.06ZM38.09,21l0,0,0,0Zm9.62-6.36h0ZM20,57.58l-.06,0,.11.06Zm-8.71-7ZM63.1,57.47A28.56,28.56,0,0,1,34.57,86H22.1l3.35-1.87a30.94,30.94,0,0,0,6.14-4.53h0l0,0a30.55,30.55,0,0,0,9.31-18.36l.09-.69.67-.16A30.75,30.75,0,0,0,61.23,45.49l1.87-3.35Zm0-26.86a28.61,28.61,0,1,1-52.45-15.8l.36-.54.64.11c12,2,21.84,5.12,21.84,22.85a1,1,0,0,0,2,0c0-17.73,9.89-20.84,21.84-22.85l.64-.11.36.54A28.48,28.48,0,0,1,63.1,30.61Z"/></g></g></svg>